<mxfile host="Electron" modified="2024-03-09T15:50:21.158Z" agent="Mozilla/5.0 (Windows NT 10.0; Win64; x64) AppleWebKit/537.36 (KHTML, like Gecko) draw.io/23.1.5 Chrome/120.0.6099.109 Electron/28.1.0 Safari/537.36" etag="clJn_yxCwEG0oNhCoKEU" version="23.1.5" type="device">
  <diagram name="Page-1" id="I_zeA8WCITlmHrCYIixl">
    <mxGraphModel dx="444" dy="657" grid="1" gridSize="10" guides="1" tooltips="1" connect="1" arrows="1" fold="1" page="1" pageScale="1" pageWidth="850" pageHeight="1100" math="0" shadow="0">
      <root>
        <mxCell id="0" />
        <mxCell id="1" parent="0" />
        <mxCell id="7ef3U6_-EXXHt0iTFCgg-10" value="TestsConfigData" style="swimlane;fontStyle=1;align=center;verticalAlign=top;childLayout=stackLayout;horizontal=1;startSize=26;horizontalStack=0;resizeParent=1;resizeParentMax=0;resizeLast=0;collapsible=1;marginBottom=0;whiteSpace=wrap;html=1;" vertex="1" parent="1">
          <mxGeometry x="70" y="210" width="240" height="130" as="geometry" />
        </mxCell>
        <mxCell id="7ef3U6_-EXXHt0iTFCgg-11" value="name: str&lt;div&gt;description: str&lt;br&gt;&lt;/div&gt;&lt;div&gt;languages: dict[str, dict[str, dict[str, any]]]&lt;br&gt;&lt;/div&gt;" style="text;strokeColor=none;fillColor=none;align=left;verticalAlign=top;spacingLeft=4;spacingRight=4;overflow=hidden;rotatable=0;points=[[0,0.5],[1,0.5]];portConstraint=eastwest;whiteSpace=wrap;html=1;" vertex="1" parent="7ef3U6_-EXXHt0iTFCgg-10">
          <mxGeometry y="26" width="240" height="54" as="geometry" />
        </mxCell>
        <mxCell id="7ef3U6_-EXXHt0iTFCgg-12" value="" style="line;strokeWidth=1;fillColor=none;align=left;verticalAlign=middle;spacingTop=-1;spacingLeft=3;spacingRight=3;rotatable=0;labelPosition=right;points=[];portConstraint=eastwest;strokeColor=inherit;" vertex="1" parent="7ef3U6_-EXXHt0iTFCgg-10">
          <mxGeometry y="80" width="240" height="8" as="geometry" />
        </mxCell>
        <mxCell id="7ef3U6_-EXXHt0iTFCgg-13" value="get_tests_config_data(): TestsConfigData&lt;br&gt;__iter__(self): Generator[str, None, None]" style="text;strokeColor=none;fillColor=none;align=left;verticalAlign=top;spacingLeft=4;spacingRight=4;overflow=hidden;rotatable=0;points=[[0,0.5],[1,0.5]];portConstraint=eastwest;whiteSpace=wrap;html=1;" vertex="1" parent="7ef3U6_-EXXHt0iTFCgg-10">
          <mxGeometry y="88" width="240" height="42" as="geometry" />
        </mxCell>
      </root>
    </mxGraphModel>
  </diagram>
</mxfile>
